<?xml version="1.0" encoding="UTF-8" standalone="no"?>
<svg
   version="1.1"
   viewBox="0 0 97969 160000"
   id="svg22"
   sodipodi:docname="_92da1cf4-6edf-4aba-9356-df6d357cf2db-removebg-preview.svg"
   inkscape:export-filename="..\source\repos\Tjorbenn\Roominate\wwwroot\roominate.svg"
   inkscape:export-xdpi="96"
   inkscape:export-ydpi="96"
   width="97969"
   height="160000"
   xmlns:inkscape="http://www.inkscape.org/namespaces/inkscape"
   xmlns:sodipodi="http://sodipodi.sourceforge.net/DTD/sodipodi-0.dtd"
   xmlns="http://www.w3.org/2000/svg"
   xmlns:svg="http://www.w3.org/2000/svg">
  <defs
     id="defs22" />
  <sodipodi:namedview
     id="namedview22"
     pagecolor="#ffffff"
     bordercolor="#000000"
     borderopacity="0.25"
     inkscape:showpageshadow="2"
     inkscape:pageopacity="0.0"
     inkscape:pagecheckerboard="true"
     inkscape:deskcolor="#d1d1d1" />
  <g
     stroke-width="2"
     fill="none"
     stroke-linecap="butt"
     id="g12">
    <path
       stroke="#e8eff5"
       vector-effect="non-scaling-stroke"
       d="m 230.53,297.86 q -4.78,3.38 -10.04,3.52 -4.43,0.13 -10.55,-0.62 c -3.72,-0.45 -7.83,1.09 -11.73,1.14 q -36.65,0.43 -60.89,0.07 -4.36,-0.06 -8.71,0.07 -9.56,0.31 -19.18,-0.24 -0.85,-0.05 -4.51,-0.91 -3.1,-0.72 -6.91,0.2 -5.74,1.39 -12.52,-0.26"
       id="path1" />
    <path
       stroke="#e8eff5"
       vector-effect="non-scaling-stroke"
       d="M 220.85,331.84 90.29,331.88"
       id="path2" />
    <path
       stroke="#e8eff5"
       vector-effect="non-scaling-stroke"
       d="m 220.58,344.23 q -3.75,0.42 -5.08,0.42 -27.86,0.08 -124.93,-0.05"
       id="path3" />
    <path
       stroke="#f6d282"
       vector-effect="non-scaling-stroke"
       d="m 207.07,101.1 c 8.13,4.66 7.63,10.54 7.63,20.17 q -0.02,71.48 0.02,143.04 0,0.77 0.52,0.21 c 9.3,-9.96 18.18,-21.61 28.23,-32.6 5.07,-5.55 8.45,-10.53 12.88,-16.82 19.46,-27.68 25.6,-63.16 16.09,-96.09"
       id="path4" />
    <path
       stroke="#ffe483"
       vector-effect="non-scaling-stroke"
       d="m 272.44,119.01 c -2.17,-9.88 -8.79,-24.44 -14.66,-32.26 -4.96,-6.62 -9.03,-12.86 -15.33,-19.2 q -4.17,-4.21 -15.6,-13.16 C 215.92,45.84 201.89,40.03 188.26,36.02 166.56,29.64 142.43,29.86 120.61,36.67 108.85,40.35 96.43,45.24 86.68,52.42 80.86,56.7 70.5,64.47 64.59,71.58 c -7.39,8.88 -15.91,19.64 -21,31.56 -11.39,26.68 -13.75,55.42 -3.81,83.14 2.02,5.62 4.02,11.38 6.73,16.38 5.62,10.37 13.15,20.69 20.97,29.53 q 14.14,16 27.52,32.2 1.01,1.22 1.02,-0.37 0.11,-74.29 0,-149.27 c -0.01,-6.87 2.74,-11.51 8.71,-13.89 q 2.79,-1.1 9.66,-1.1 43.56,-0.01 87.11,-0.01 1.9,0 5.57,1.35"
       id="path5" />
    <path
       stroke="#f5b706"
       vector-effect="non-scaling-stroke"
       d="m 272.44,119.01 q -0.08,1.36 -1.42,2.74 a 1.12,1.11 40.4 0 1 -1.47,0.11 q -3,-2.25 -6.93,-3.49 c -9.88,-3.12 -19.61,-7.09 -29.41,-10.54 -4.66,-1.64 -12.68,-3.83 -18.85,-6.42 q -2.77,-1.16 -7.29,-0.31"
       id="path6" />
    <path
       stroke="#82e1a8"
       vector-effect="non-scaling-stroke"
       d="m 133.29,286.99 q 28.06,0.07 56.1,-0.01 c 5.52,-0.01 10.32,-0.85 10.35,-7.23 q 0.19,-36.52 -0.03,-155.72"
       id="path7" />
    <path
       stroke="#8a9497"
       vector-effect="non-scaling-stroke"
       d="m 199.71,124.03 c 0.9,-8.15 -3.92,-9.05 -10.76,-9.04 q -35.6,0.04 -71.2,0.19 -6.61,0.03 -6.61,7.07 -0.08,77.54 -0.12,155.08 c -0.01,5.47 0.72,9.53 6.97,9.6 q 7.66,0.1 15.3,0.06"
       id="path8" />
    <path
       stroke="#0d7640"
       vector-effect="non-scaling-stroke"
       d="m 199.71,124.03 q -8.88,2.17 -13.18,3.76 c -15.61,5.79 -31.2,11.52 -46.68,17.65 -4.19,1.67 -6.61,4.09 -6.61,8.56 q -0.03,66.44 0.05,132.99"
       id="path9" />
    <path
       stroke="#ffe483"
       vector-effect="non-scaling-stroke"
       d="m 111.24,76.72 c 3.3,-2.32 4.76,-6.64 2.82,-10.21 -2.69,-4.96 -9.64,-5.41 -14.11,-2.59 -9.1,5.73 -16.56,14.22 -24.38,22.15 -2.72,2.76 -10.71,12.15 -11.57,17.17 -1.18,6.86 6.1,12.25 12.17,8.39 3.72,-2.37 7.61,-9.37 10.05,-13.15 5.11,-7.93 16.4,-15.69 25.02,-21.76"
       id="path10" />
    <path
       stroke="#82e1a8"
       vector-effect="non-scaling-stroke"
       d="m 153.4605,227.3121 a 8.56,8.28 79.7 0 0 6.6161,-9.9026 8.56,8.28 79.7 0 0 -9.6771,-6.9416 8.56,8.28 79.7 0 0 -6.6161,9.9026 8.56,8.28 79.7 0 0 9.6771,6.9416"
       id="path11" />
    <path
       stroke="#73848d"
       vector-effect="non-scaling-stroke"
       d="m 109.94,359.49 c 5.88,14.67 18.84,20.02 33.81,20.24 11.82,0.17 25.42,1.26 36.88,-2.09 q 7.36,-2.16 11.97,-6.32 5.45,-4.91 8.11,-11.94 a 0.5,0.5 0 0 0 -0.47,-0.68 l -89.74,-0.04 a 0.61,0.6 79.1 0 0 -0.56,0.83"
       id="path12" />
  </g>
  <path
     fill="#ffffff"
     d="m 230.53,297.86 q -4.78,3.38 -10.04,3.52 -4.43,0.13 -10.55,-0.62 c -3.72,-0.45 -7.83,1.09 -11.73,1.14 q -36.65,0.43 -60.89,0.07 -4.36,-0.06 -8.71,0.07 -9.56,0.31 -19.18,-0.24 -0.85,-0.05 -4.51,-0.91 -3.1,-0.72 -6.91,0.2 -5.74,1.39 -12.52,-0.26 -6.96,-5.57 -9.38,-10.48 C 69.81,277.51 62.38,268.64 54.03,258.76 Q 43.57,246.39 33.69,233.56 C 20.2,216.06 9.62,197.62 6.4,175.88 Q 3.5,156.27 5.49,141.25 C 7.61,125.35 10.47,110.17 16.22,95.76 24.86,74.1 40.61,57.03 57.64,41.67 81.19,20.41 110.48,8.12 142.49,5.06 q 33.39,-3.19 64.7,6.79 c 25.11,8 47.81,26.02 65.1,45.5 q 33.18,37.38 35.75,88.65 c 0.32,6.35 -0.43,12.26 -1.36,19.29 q -4.56,34.18 -24.94,62.19 -11.95,16.42 -25.22,31.79 c -5.72,6.63 -12.15,13.76 -16.33,21.08 -3.19,5.58 -5.54,12.17 -9.66,17.51 z M 207.07,101.1 c 8.13,4.66 7.63,10.54 7.63,20.17 q -0.02,71.48 0.02,143.04 0,0.77 0.52,0.21 c 9.3,-9.96 18.18,-21.61 28.23,-32.6 5.07,-5.55 8.45,-10.53 12.88,-16.82 19.46,-27.68 25.6,-63.16 16.09,-96.09 -2.17,-9.88 -8.79,-24.44 -14.66,-32.26 -4.96,-6.62 -9.03,-12.86 -15.33,-19.2 q -4.17,-4.21 -15.6,-13.16 C 215.92,45.84 201.89,40.03 188.26,36.02 166.56,29.64 142.43,29.86 120.61,36.67 108.85,40.35 96.43,45.24 86.68,52.42 80.86,56.7 70.5,64.47 64.59,71.58 c -7.39,8.88 -15.91,19.64 -21,31.56 -11.39,26.68 -13.75,55.42 -3.81,83.14 2.02,5.62 4.02,11.38 6.73,16.38 5.62,10.37 13.15,20.69 20.97,29.53 q 14.14,16 27.52,32.2 1.01,1.22 1.02,-0.37 0.11,-74.29 0,-149.27 c -0.01,-6.87 2.74,-11.51 8.71,-13.89 q 2.79,-1.1 9.66,-1.1 43.56,-0.01 87.11,-0.01 1.9,0 5.57,1.35 z m -73.78,185.89 q 28.06,0.07 56.1,-0.01 c 5.52,-0.01 10.32,-0.85 10.35,-7.23 q 0.19,-36.52 -0.03,-155.72 c 0.9,-8.15 -3.92,-9.05 -10.76,-9.04 q -35.6,0.04 -71.2,0.19 -6.61,0.03 -6.61,7.07 -0.08,77.54 -0.12,155.08 c -0.01,5.47 0.72,9.53 6.97,9.6 q 7.66,0.1 15.3,0.06 z"
     id="path13" />
  <path
     fill="#fec807"
     d="m 272.44,119.01 q -0.08,1.36 -1.42,2.74 a 1.12,1.11 40.4 0 1 -1.47,0.11 q -3,-2.25 -6.93,-3.49 c -9.88,-3.12 -19.61,-7.09 -29.41,-10.54 -4.66,-1.64 -12.68,-3.83 -18.85,-6.42 q -2.77,-1.16 -7.29,-0.31 -3.67,-1.35 -5.57,-1.35 -43.55,0 -87.11,0.01 -6.87,0 -9.66,1.1 c -5.97,2.38 -8.72,7.02 -8.71,13.89 q 0.11,74.98 0,149.27 -0.01,1.59 -1.02,0.37 -13.38,-16.2 -27.52,-32.2 C 59.66,223.35 52.13,213.03 46.51,202.66 43.8,197.66 41.8,191.9 39.78,186.28 29.84,158.56 32.2,129.82 43.59,103.14 48.68,91.22 57.2,80.46 64.59,71.58 70.5,64.47 80.86,56.7 86.68,52.42 c 9.75,-7.18 22.17,-12.07 33.93,-15.75 21.82,-6.81 45.95,-7.03 67.65,-0.65 13.63,4.01 27.66,9.82 38.59,18.37 q 11.43,8.95 15.6,13.16 c 6.3,6.34 10.37,12.58 15.33,19.2 5.87,7.82 12.49,22.38 14.66,32.26 z M 111.24,76.72 c 3.3,-2.32 4.76,-6.64 2.82,-10.21 -2.69,-4.96 -9.64,-5.41 -14.11,-2.59 -9.1,5.73 -16.56,14.22 -24.38,22.15 -2.72,2.76 -10.71,12.15 -11.57,17.17 -1.18,6.86 6.1,12.25 12.17,8.39 3.72,-2.37 7.61,-9.37 10.05,-13.15 5.11,-7.93 16.4,-15.69 25.02,-21.76 z"
     id="path14" />
  <path
     fill="#ffffff"
     d="m 114.06,66.51 c 1.94,3.57 0.48,7.89 -2.82,10.21 -8.62,6.07 -19.91,13.83 -25.02,21.76 -2.44,3.78 -6.33,10.78 -10.05,13.15 -6.07,3.86 -13.35,-1.53 -12.17,-8.39 0.86,-5.02 8.85,-14.41 11.57,-17.17 7.82,-7.93 15.28,-16.42 24.38,-22.15 4.47,-2.82 11.42,-2.37 14.11,2.59 z"
     id="path15" />
  <path
     fill="#eca504"
     d="m 272.44,119.01 c 9.51,32.93 3.37,68.41 -16.09,96.09 -4.43,6.29 -7.81,11.27 -12.88,16.82 -10.05,10.99 -18.93,22.64 -28.23,32.6 q -0.52,0.56 -0.52,-0.21 -0.04,-71.56 -0.02,-143.04 c 0,-9.63 0.5,-15.51 -7.63,-20.17 q 4.52,-0.85 7.29,0.31 c 6.17,2.59 14.19,4.78 18.85,6.42 9.8,3.45 19.53,7.42 29.41,10.54 q 3.93,1.24 6.93,3.49 a 1.12,1.11 40.4 0 0 1.47,-0.11 q 1.34,-1.38 1.42,-2.74 z"
     id="path16" />
  <path
     fill="#15292f"
     d="m 199.71,124.03 q -8.88,2.17 -13.18,3.76 c -15.61,5.79 -31.2,11.52 -46.68,17.65 -4.19,1.67 -6.61,4.09 -6.61,8.56 q -0.03,66.44 0.05,132.99 -7.64,0.04 -15.3,-0.06 c -6.25,-0.07 -6.98,-4.13 -6.97,-9.6 q 0.04,-77.54 0.12,-155.08 0,-7.04 6.61,-7.07 35.6,-0.15 71.2,-0.19 c 6.84,-0.01 11.66,0.89 10.76,9.04 z"
     id="path17" />
  <path
     fill="#04c351"
     d="m 199.71,124.03 q 0.22,119.2 0.03,155.72 c -0.03,6.38 -4.83,7.22 -10.35,7.23 q -28.04,0.08 -56.1,0.01 -0.08,-66.55 -0.05,-132.99 c 0,-4.47 2.42,-6.89 6.61,-8.56 15.48,-6.13 31.07,-11.86 46.68,-17.65 q 4.3,-1.59 13.18,-3.76 z m -46.2495,103.2821 a 8.56,8.28 79.7 0 0 6.6161,-9.9026 8.56,8.28 79.7 0 0 -9.6771,-6.9416 8.56,8.28 79.7 0 0 -6.6161,9.9026 8.56,8.28 79.7 0 0 9.6771,6.9416 z"
     id="path18" />
  <ellipse
     fill="#ffffff"
     cx="242.52802"
     cy="-110.34364"
     transform="rotate(79.7)"
     rx="8.5600004"
     ry="8.2799997"
     id="ellipse18" />
  <path
     fill="#d0deea"
     d="m 230.53,297.86 q -1.92,2.39 -4.17,3.59 a 3.26,3.25 80.9 0 0 -1.67,2.32 q -0.99,5.68 -4.26,10.43 a 3.18,3.23 55.2 0 0 -0.48,2.58 q 1.67,6.74 0.9,15.06 l -130.56,0.04 q -0.89,-7.1 0.62,-14.91 c 0.17,-0.91 0.02,-2.49 -0.45,-3.29 q -3.47,-5.96 -4.97,-12.85 6.78,1.65 12.52,0.26 3.81,-0.92 6.91,-0.2 3.66,0.86 4.51,0.91 9.62,0.55 19.18,0.24 4.35,-0.13 8.71,-0.07 24.24,0.36 60.89,-0.07 c 3.9,-0.05 8.01,-1.59 11.73,-1.14 q 6.12,0.75 10.55,0.62 5.26,-0.14 10.04,-3.52 z"
     id="path19" />
  <path
     fill="#ffffff"
     d="m 220.85,331.84 -0.27,12.39 q -3.75,0.42 -5.08,0.42 -27.86,0.08 -124.93,-0.05 l -0.28,-12.72 z"
     id="path20" />
  <path
     fill="#d0deea"
     d="m 220.58,344.23 c -1.46,23.27 -17.81,44.73 -40.58,50.29 -12.32,3 -27.3,2.47 -41.24,1.09 q -19.67,-1.95 -32.79,-15.47 C 97.32,371.23 90.9,357.04 90.57,344.6 q 97.07,0.13 124.93,0.05 1.33,0 5.08,-0.42 z m -110.64,15.26 c 5.88,14.67 18.84,20.02 33.81,20.24 11.82,0.17 25.42,1.26 36.88,-2.09 q 7.36,-2.16 11.97,-6.32 5.45,-4.91 8.11,-11.94 a 0.5,0.5 0 0 0 -0.47,-0.68 l -89.74,-0.04 a 0.61,0.6 79.1 0 0 -0.56,0.83 z"
     id="path21" />
  <path
     fill="#15292f"
     d="m 143.75,379.73 c -14.97,-0.22 -27.93,-5.57 -33.81,-20.24 a 0.61,0.6 79.1 0 1 0.56,-0.83 l 89.74,0.04 a 0.5,0.5 0 0 1 0.47,0.68 q -2.66,7.03 -8.11,11.94 -4.61,4.16 -11.97,6.32 c -11.46,3.35 -25.06,2.26 -36.88,2.09 z"
     id="path22" />
  <path
     id="rect22"
     style="fill:#ffffff;fill-opacity:1;stroke-width:0.991297"
     d="m 85.591797,289.49617 v 12.95899 H 225.23047 c 0.002,-0.005 0.007,-0.0109 0.0137,-0.0156 0.0226,-0.0149 0.0451,-0.0305 0.0684,-0.0449 l 0.008,-0.008 c 0.0365,-0.0321 0.0778,-0.0595 0.11719,-0.0879 0.008,-0.006 0.0153,-0.0135 0.0234,-0.0195 0.0287,-0.0286 0.0578,-0.0571 0.0859,-0.0859 0.0345,-0.0363 0.0694,-0.0728 0.10546,-0.10742 0.0206,-0.0189 0.0405,-0.0374 0.0625,-0.0547 0.0135,-0.0106 0.0191,-0.0144 0.0332,-0.0234 0.025,-0.0161 0.0505,-0.0319 0.0762,-0.0469 0.001,-10e-4 0.004,-4.4e-4 0.006,-0.002 0.006,-0.005 0.0101,-0.0108 0.0156,-0.0156 0.0422,-0.0381 0.0868,-0.0741 0.13282,-0.10742 0.0464,-0.0338 0.0937,-0.0656 0.14257,-0.0957 0.0451,-0.0281 0.0927,-0.055 0.14063,-0.0781 0.0141,-0.007 0.0287,-0.0116 0.043,-0.0176 0.0297,-0.0231 0.0597,-0.0446 0.0918,-0.0644 0.0224,-0.013 0.0108,-0.005 0.0332,-0.0176 0.004,-0.002 0.01,-0.005 0.0137,-0.006 0.003,-5.7e-4 0.006,-7e-5 0.008,0 0.0787,-0.0599 0.15671,-0.12063 0.23633,-0.17969 0.26493,-0.19114 0.51834,-0.39735 0.7793,-0.59375 0.27613,-0.20439 0.5488,-0.41379 0.82422,-0.61914 0.13559,-0.10186 0.27206,-0.20356 0.4082,-0.30469 0.0224,-0.0166 0.0395,-0.0137 0.0606,-0.0234 0.043,-0.041 0.0853,-0.0827 0.1289,-0.12305 0.0276,-0.0248 0.0538,-0.0501 0.082,-0.0742 0.1253,-0.1071 0.26158,-0.20059 0.39649,-0.29492 0.019,-0.0303 0.0385,-0.0602 0.0586,-0.0899 0.0753,-0.11117 0.161,-0.21418 0.25,-0.31445 0.10238,-0.11438 0.21462,-0.21913 0.32813,-0.32226 0.071,-0.0649 0.14363,-0.12879 0.21679,-0.19141 0.12255,-0.15412 0.23991,-0.31236 0.36914,-0.46094 0.0656,-0.12477 0.14493,-0.24217 0.22852,-0.35547 5.6e-4,-10e-4 -6e-4,-0.003 0.002,-0.004 0.0335,-0.0815 0.0734,-0.16054 0.12305,-0.23438 0.0246,-0.0348 0.0544,-0.0656 0.0801,-0.0996 0.0497,-0.096 0.10159,-0.19004 0.16601,-0.27734 0.004,-0.005 0.008,-0.01 0.0117,-0.0137 v -7.48438 z m 145.609373,8.90625 -0.006,0.006 c -0.005,0.0137 -0.009,0.0276 -0.0137,0.041 -0.002,0.006 -0.004,0.013 -0.006,0.0195 0.008,-0.007 0.017,-0.0142 0.0254,-0.0215 z m -3.94922,2.92383 c -0.0331,0.0255 -0.0665,0.0507 -0.0996,0.0762 10e-4,0.001 0.003,0.003 0.004,0.006 0.0321,-0.0271 0.0637,-0.0549 0.0957,-0.082 z m -1.14453,0.4707 c -0.0134,0.009 -0.0258,0.0186 -0.0391,0.0273 0.001,7.6e-4 0.003,6.5e-4 0.004,0.002 0.0118,-0.01 0.0231,-0.0199 0.0351,-0.0293 z m -0.46289,0.38282 c -0.0123,0.0111 -0.0245,0.0224 -0.0371,0.0332 -0.007,0.006 -0.0127,0.0132 -0.0195,0.0195 0.0103,-0.009 0.0209,-0.0169 0.0312,-0.0254 v -0.002 c 0.008,-0.009 0.0175,-0.0163 0.0254,-0.0254 z m 1.0332,0.13671 c -0.002,6.7e-4 -0.004,6e-4 -0.006,0.002 -8.3e-4,10e-4 -6e-4,0.003 -0.002,0.004 0.002,-0.002 0.006,-0.004 0.008,-0.006 z m -0.83984,0.11524 c -0.005,0.003 -0.0103,0.007 -0.0156,0.01 -0.006,0.005 -0.0117,0.009 -0.0176,0.0137 h 0.004 0.002 c 0.009,-0.008 0.0185,-0.0153 0.0273,-0.0234 z" />
</svg>
